<svg version="1.1" id="Layer_1" xmlns="http://www.w3.org/2000/svg" xmlns:xlink="http://www.w3.org/1999/xlink" 
	 viewBox="0 0 512 512" xml:space="preserve">
<path style="fill:#C39774;" d="M229.038,256L385.38,99.659C345.368,59.647,290.094,34.9,229.038,34.9
	C106.928,34.9,7.938,133.889,7.938,256c0,122.47,98.63,221.101,221.101,221.101c119.11,0,216.223-94.186,220.922-212.145
	c0.195-4.88-3.682-8.956-8.565-8.956H229.038z"/>
<circle style="opacity:0.15;enable-background:new    ;" cx="342.974" cy="90.668" r="7.938"/>
<circle style="opacity:0.15;enable-background:new    ;" cx="194.575" cy="55.682" r="7.938"/>
<circle style="opacity:0.15;enable-background:new    ;" cx="79.248" cy="142.474" r="7.938"/>
<circle style="opacity:0.15;enable-background:new    ;" cx="47.826" cy="345.579" r="7.938"/>
<circle style="opacity:0.15;enable-background:new    ;" cx="186.637" cy="435.092" r="7.938"/>
<circle style="opacity:0.15;enable-background:new    ;" cx="325.522" cy="431.917" r="7.938"/>
<circle style="opacity:0.15;enable-background:new    ;" cx="415.015" cy="331.852" r="7.938"/>
<path style="fill:#FDD05F;" d="M49.944,256c0,98.911,80.184,179.095,179.095,179.095S408.133,354.911,408.133,256H229.038
	l126.639-126.639c-32.409-32.409-77.183-52.455-126.639-52.455C130.128,76.906,49.944,157.089,49.944,256z"/>
<path style="opacity:0.1;enable-background:new    ;" d="M229.038,76.906c-98.911,0-179.095,80.184-179.095,179.095
	c0,2.409,0.061,4.804,0.156,7.189c3.775-95.576,82.437-171.904,178.938-171.904c45.796,0,87.571,17.198,119.237,45.477l7.401-7.401
	C323.267,96.951,278.493,76.906,229.038,76.906z"/>
<g>
	<path style="fill:#DE2A4E;" d="M308.919,256c0,15.883,12.876,28.759,28.759,28.759c15.883,0,28.759-12.876,28.759-28.759
		L308.919,256L308.919,256z"/>
	<path style="fill:#DE2A4E;" d="M334.738,150.3c-11.231-11.231-29.441-11.231-40.672,0c-11.231,11.231-11.231,29.441,0,40.672
		L334.738,150.3z"/>
	<circle style="fill:#DE2A4E;" cx="249.936" cy="134.536" r="28.755"/>
	<circle style="fill:#DE2A4E;" cx="134.652" cy="170.001" r="28.755"/>
	<circle style="fill:#DE2A4E;" cx="108.014" cy="245.471" r="28.755"/>
	<circle style="fill:#DE2A4E;" cx="206.343" cy="205.529" r="28.755"/>
	<circle style="fill:#DE2A4E;" cx="136.769" cy="334" r="28.755"/>
	<circle style="fill:#DE2A4E;" cx="221.171" cy="305.235" r="28.755"/>
	<circle style="fill:#DE2A4E;" cx="234.601" cy="383.234" r="28.755"/>
	<circle style="fill:#DE2A4E;" cx="325.522" cy="334" r="28.755"/>
</g>
<circle style="opacity:0.15;enable-background:new    ;" cx="320.125" cy="328.645" r="7.938"/>
<circle style="opacity:0.15;enable-background:new    ;" cx="222.949" cy="309.955" r="7.938"/>
<circle style="opacity:0.15;enable-background:new    ;" cx="333.46" cy="266.447" r="7.938"/>
<circle style="opacity:0.15;enable-background:new    ;" cx="248.518" cy="142.474" r="7.938"/>
<circle style="opacity:0.15;enable-background:new    ;" cx="115.951" cy="242.232" r="7.938"/>
<circle style="opacity:0.15;enable-background:new    ;" cx="131.943" cy="331.852" r="7.938"/>
<path style="opacity:0.1;enable-background:new    ;" d="M375.91,90.749L251.74,214.918h18.381L385.38,99.659
	C382.315,96.594,379.149,93.629,375.91,90.749z"/>
<g>
	<path style="fill:#FDD05F;" d="M339.359,238.524L339.359,238.524c-6.239,0-11.297-5.058-11.297-11.297v-25.321h22.593v25.321
		C350.655,233.466,345.598,238.524,339.359,238.524z"/>
	<path style="fill:#FDD05F;" d="M385.959,230.057L385.959,230.057c-6.239,0-11.297-5.058-11.297-11.297v-16.854h22.593v16.854
		C397.255,224.999,392.198,230.057,385.959,230.057z"/>
</g>
<path style="fill:#C39774;" d="M445.693,52.04c-3.317-3.596-8.942-3.753-12.402-0.293l-23.52,23.52L283.132,201.906h212.356
	c4.874,0,8.761-4.061,8.567-8.931C501.898,138.67,480.154,89.401,445.693,52.04z"/>
<circle style="opacity:0.15;enable-background:new    ;" cx="457.941" cy="96.203" r="7.938"/>
<path style="fill:#FDD05F;" d="M462.227,201.906c0-49.456-20.046-94.229-52.455-126.639L283.132,201.906H462.227z"/>
<g>
	<path style="fill:#DE2A4E;" d="M420.532,201.906c0-15.883-12.876-28.759-28.759-28.759s-28.759,12.876-28.759,28.759H420.532z"/>
	<path style="fill:#DE2A4E;" d="M348.16,136.878c11.231,11.231,29.441,11.231,40.672,0c11.231-11.231,11.231-29.441,0-40.672
		L348.16,136.878z"/>
</g>
<rect x="328.063" y="201.91" style="opacity:0.1;enable-background:new    ;" width="22.593" height="10.272"/>
<rect x="374.661" y="201.91" style="opacity:0.1;enable-background:new    ;" width="22.593" height="10.272"/>
<path d="M451.528,46.658L451.528,46.658c-3.051-3.307-7.376-5.257-11.863-5.348c-4.55-0.083-8.785,1.622-11.986,4.824L385.274,88.54
	c-42.547-39.762-97.711-61.578-156.235-61.578c-61.178,0-118.694,23.824-161.955,67.084C23.824,137.306,0,194.822,0,256
	c0,61.353,23.777,118.918,66.949,162.09c43.174,43.173,100.738,66.948,162.09,66.948c59.563,0,115.985-22.75,158.872-64.059
	c42.769-41.196,67.622-96.494,69.981-155.707c0.179-4.485-1.501-8.912-4.606-12.144c-3.139-3.266-7.361-5.065-11.89-5.065H248.201
	l38.22-38.22h33.705v17.383c0,10.606,8.629,19.234,19.234,19.234c10.606,0,19.234-8.629,19.234-19.234v-17.383h8.132v8.916
	c0,10.606,8.629,19.234,19.234,19.234c10.606,0,19.234-8.629,19.234-19.234v-8.916h90.295c4.533,0,8.759-1.8,11.9-5.069
	c3.101-3.226,4.776-7.642,4.598-12.114C509.833,138.443,488.361,86.592,451.528,46.658z M441.395,263.938
	c0.071,0,0.261,0,0.443,0.189c0.134,0.14,0.198,0.312,0.189,0.512c-2.195,55.102-25.326,106.564-65.131,144.905
	c-39.914,38.445-92.424,59.618-147.859,59.618c-57.112,0-110.69-22.124-150.865-62.299C38.001,366.69,15.875,313.112,15.875,256
	c0-117.539,95.625-213.162,213.163-213.162c54.282,0,105.471,20.156,145.014,56.924l-18.501,18.501
	c-34.597-31.841-79.212-49.293-126.514-49.293c-103.129,0-187.032,83.902-187.032,187.032s83.903,187.032,187.032,187.032
	c100.47,0,182.677-79.633,186.851-179.095h25.507V263.938z M277.52,196.293c-0.001,0.001-0.002,0.002-0.003,0.003l-54.09,54.09
	c-2.27,2.27-2.95,5.684-1.721,8.65c1.229,2.967,4.122,4.9,7.333,4.9h170.967c-4.161,90.706-79.251,163.22-170.967,163.22
	c-94.376,0-171.157-76.78-171.157-171.157S134.662,84.844,229.038,84.844c43.061,0,83.692,15.801,115.282,44.649L277.52,196.293z
	 M342.718,227.227c0,1.852-1.507,3.359-3.359,3.359S336,229.079,336,227.227v-17.383h6.718L342.718,227.227L342.718,227.227z
	 M389.318,218.76c0,1.852-1.507,3.359-3.359,3.359s-3.359-1.507-3.359-3.359v-8.916h6.718L389.318,218.76L389.318,218.76z
	 M302.295,193.969l88.697-88.697c0,0,0.001-0.001,0.002-0.002l18.646-18.646c27.07,29.642,42.645,67.243,44.464,107.345
	L302.295,193.969L302.295,193.969z M495.942,193.774c-0.186,0.195-0.387,0.195-0.454,0.195h-25.501
	c-1.839-44.341-19.063-85.922-49.116-118.577l18.033-18.033c0.05-0.05,0.186-0.184,0.44-0.177c0.199,0.004,0.371,0.085,0.514,0.239
	h-0.001c34.279,37.164,54.262,85.417,56.266,135.869C496.127,193.36,496.136,193.573,495.942,193.774z"/>
</svg>